<?xml version="1.0" encoding="UTF-8" standalone="no"?>
<!DOCTYPE svg  PUBLIC '-//W3C//DTD SVG 1.1//EN'  'http://www.w3.org/Graphics/SVG/1.1/DTD/svg11.dtd'>
<svg version="1.1" xmlns="http://www.w3.org/2000/svg">
<defs>
<font id="MmiwebfontRegular" horiz-adv-x="816">
<font-face panose-1="0 0 0 0 0 0 0 0 0 0" font-family="Mmi-webfont" ascent="800" underline-position="-150" descent="-200" units-per-em="1000" bbox="49.4688 -31 798 729" unicode-range="U+000A-E9B0" underline-thickness="50" font-weight="400"/>
<missing-glyph horiz-adv-x="500"/>
<glyph glyph-name=".notdef" horiz-adv-x="500"/>
<glyph glyph-name=".notdef" horiz-adv-x="500"/>
<glyph glyph-name=".null" horiz-adv-x="0"/>
<glyph glyph-name="nonmarkingreturn" horiz-adv-x="333"/>
<glyph glyph-name="LF" unicode="
" horiz-adv-x="0"/>
<glyph glyph-name="controlCR" unicode="
" horiz-adv-x="0"/>
<glyph glyph-name="space" unicode=" " horiz-adv-x="377"/>
<glyph glyph-name="nonbreakingspace" unicode=" " horiz-adv-x="377"/>
<glyph glyph-name="unie901" unicode="" horiz-adv-x="754" d="M596 654q29 -1 54 -14.5t39.5 -36.5t14.5 -50v-442q0 -46 -33 -78.5t-79 -32.5h-431q-46 0 -78.5 32.5t-32.5 78.5v442q0 20 8.5 38t22.5 31.5t33.5 22t41.5 8.5v-62q0 -26 19 -45t45.5 -19t45.5 19t19 45v63h182v-63q0 -26 19 -45t45.5 -19t45.5 19t19 45v63zM655 111 v336h-557v-336q0 -26 18.5 -44.5t44.5 -18.5h431q26 0 44.5 18.5t18.5 44.5zM220.5 563q-11.5 0 -20 8.5t-8.5 19.5v81q0 12 8.5 20t20 8t19.5 -8t8 -20v-81q0 -11 -8 -19.5t-19.5 -8.5zM531.5 563q-11.5 0 -20 8.5t-8.5 19.5v81q0 12 8.5 20t20 8t19.5 -8t8 -20v-81 q0 -11 -8 -19.5t-19.5 -8.5zM375 170v48l206 118v-47zM169 170v48l206 118v-47zM169 110v48l412 238v-48zM375 396v-48l-206 -119v48zM375 110v48l206 119v-48z"/>
<glyph glyph-name="unie902" unicode="" horiz-adv-x="665" d="M612 45q6 -11 2.5 -23.5t-15.5 -18.5q-9 -3 -14 -3q-18 0 -27 16l-9 15h-433l-9 -15q-8 -16 -27 -16q-9 0 -14 3q-11 6 -14.5 18.5t2.5 23.5l103 192q-11 1 -20.5 6.5t-16.5 13.5t-11 18.5t-4 22.5v280q0 57 41 97.5t97 40.5h179q56 0 96 -40t40 -96v-282 q0 -23 -14.5 -40.5t-36.5 -20.5zM246 649q-23 0 -42.5 -12t-31.5 -32t-12 -44l2 -75q0 -12 8.5 -21t21.5 -9h282q13 0 22 8.5t9 21.5v75q0 36 -26 62t-62 26h-171zM460 291q18 0 31.5 14t13.5 32q0 19 -13.5 32t-32 13t-32 -13t-13.5 -32t13.5 -32.5t32.5 -13.5zM464 186 l-26 49h-210l-27 -49h263zM206 384q-19 0 -32.5 -13.5t-13.5 -32t13.5 -32t32.5 -13.5t32 13.5t13 32t-13 32t-32 13.5zM142 78h382l-35 61h-313z"/>
<glyph glyph-name="unie903" unicode="" horiz-adv-x="570" d="M520 209q0 -25 -14 -45t-37 -28l47 -90q7 -11 3 -23.5t-16 -18.5q-6 -4 -14 -4q-19 0 -28 17l-61 114h-230l-61 -114q-9 -17 -28 -17q-7 0 -14 4q-12 6 -15.5 18.5t2.5 23.5l47 90q-22 8 -36.5 28t-14.5 45v430q0 32 22.5 54.5t54.5 22.5h316q32 0 54.5 -22.5t22.5 -54.5 v-430zM220 690v-55h131v55h-131zM108 571v-100q0 -10 4.5 -18.5t13 -13.5t18.5 -5h282q15 0 26 11t11 26v100q0 15 -11 26t-26 11h-282q-15 0 -25.5 -11t-10.5 -26zM153 184q21 0 35.5 15t14.5 35.5t-14.5 35t-35.5 14.5t-35.5 -14.5t-14.5 -35.5t14.5 -35.5t35.5 -14.5z M417.5 184q20.5 0 35 15t14.5 35q0 14 -6.5 25.5t-18 18t-25.5 6.5q-20 0 -35 -14.5t-15 -35.5t15 -35.5t35.5 -14.5z"/>
<glyph glyph-name="unie904" unicode="" horiz-adv-x="696" d="M640 574q13 -16 0 -33l-50 -65q-8 -11 -21 -11h-189v-63h177q7 0 13.5 -3.5t10 -10t3.5 -13.5v-131q0 -11 -8 -19t-19 -8h-177v-185q0 -13 -9.5 -22.5t-22.5 -9.5t-22.5 9.5t-9.5 22.5v185h-189q-13 0 -21 10l-50 66q-13 16 0 33l50 65q8 11 21 11h189v63h-177 q-11 0 -19 8t-8 19v131q0 8 4 14t10 9.5t13 3.5h177v34q0 13 9.5 22.5t22.5 9.5t22.5 -9.5t9.5 -22.5v-34h189q13 0 21 -10z"/>
<glyph glyph-name="unie905" unicode="" horiz-adv-x="811" d="M727 239q22 -13 30 -37.5t2 -46.5q-6 -21 -25.5 -36.5t-48.5 -15.5h-555q-16 0 -29.5 4t-21.5 10t-14 14t-8 13l-4 10q-3 11 -3.5 23t7 31.5t27.5 31.5l291 183v31q0 26 23 41l25 17q9 7 10 18q1 10 -5 16q-13 12 -34 8q-14 -3 -19.5 -11t-6.5 -24v-2v-4.5v-4.5 q0 -3 -3.5 -5.5t-9.5 -4t-13 -1.5h-6q-11 0 -18.5 3.5t-7.5 7.5v11q2 41 26 67q33 36 89 25q27 -6 48 -29t21 -54q0 -41 -44 -68l-3 -2q-14 -9 -14 -21v-14zM698 175q2 8 -6 13l-286 179l-285 -178q-8 -6 -5 -15t13 -9h555q11 0 14 10z"/>
<glyph glyph-name="unie94a" unicode="" d="M434 441l-55 -48l225 -262l-8 -70h-9l-252 294l-17 -15l239 -278l-31 1l-225 263l-55 -48q-16 -14 -37.5 -12.5t-35.5 17.5l-111 130q-13 16 -11.5 37.5t17.5 34.5l188 163q16 14 37 12.5t35 -17.5l111 -130q14 -16 12.5 -37.5t-17.5 -34.5zM300 524q16 14 20.5 32 t-5.5 29.5t-28.5 10t-34.5 -15.5l-117 -101q-16 -14 -20.5 -32t5.5 -29.5t28.5 -10t34.5 15.5zM739 485q12 0 19.5 -8t7.5 -21v-20q0 -9 -4.5 -17.5t-13 -13t-17.5 -4.5h-5l6 -14q17 -41 17 -85v-170q0 -9 -5 -17.5t-13 -13t-18 -4.5h-46q-15 0 -25.5 10.5t-10.5 24.5v43 h-30l-173 219h225q12 0 17 7.5t1 18.5l-53 129q-3 8 -9.5 14t-14.5 9.5t-15 3.5h-144l-24 28h185q19 0 38.5 -13t26.5 -31l35 -85l34 9q4 1 9 1zM636.5 241q18.5 0 32 13.5t13.5 32t-13.5 32.5t-32.5 14q-12 0 -22.5 -6.5t-16.5 -17t-6 -23.5q0 -18 13.5 -31.5t32 -13.5z M267 257l29 24l91 -106h-154v-43q0 -14 -10.5 -24.5t-24.5 -10.5h-47q-14 0 -24.5 10.5t-10.5 24.5v168l29 -34q24 -27 59.5 -30t62.5 21z"/>
<glyph glyph-name="unie94b" unicode="" horiz-adv-x="518" d="M459 674l9 -644q0 -16 -11.5 -27.5t-27.5 -11.5h-32q-17 0 -28 11q-12 12 -12 28l5 245h-2q-21 0 -36 15.5t-14 36.5l18 314q2 33 26 56t57 23q19 1 33 -12.5t15 -33.5zM226 717q6 0 10 -3.5t4 -9.5l3 -209q0 -19 -13 -33t-32 -14h-9l19 -420q0 -16 -11 -28t-28 -12 l-30 -1q-17 0 -29 11q-11 12 -11 28l7 421h-6q-19 -1 -33 12.5t-14 32.5l-3 209q0 6 4 10t10 4h3q6 0 10.5 -4t4.5 -9l2 -139q0 -6 3 -11t8 -8t11 -3h4q9 1 15.5 7.5t6.5 15.5l-2 138q0 6 4 10t9 4h4q6 0 10 -4t4 -9l2 -139q0 -9 6.5 -15.5t16.5 -5.5h3q9 0 15.5 6.5 t6.5 15.5l-2 138q0 4 2 7t5 5t7 2h3z"/>
<glyph glyph-name="unie94c" unicode="" horiz-adv-x="808" d="M740 122q18 -17 18 -41.5t-17.5 -42t-42 -17.5t-41.5 17l-154 154l-1.5 1.5t-0.5 1.5q-73 -48 -160 -48q-121 0 -206 85t-85 205.5t85 206t205.5 85.5t206 -85.5t85.5 -205.5q0 -87 -48 -160l1 -1t2 -1zM341 248q79 0 134.5 55.5t55.5 134.5t-55.5 134.5t-134.5 55.5 t-134.5 -55.5t-55.5 -134.5t55.5 -134.5t134.5 -55.5z"/>
<glyph glyph-name="unie94d" unicode="" horiz-adv-x="785" d="M734 8q2 -4 -0.5 -7.5t-6.5 -3.5h-669q-4 0 -6.5 3.5t-0.5 7.5l116 276q2 5 7 5h117q-90 172 -90 236q0 79 56 135t135.5 56t135 -56t55.5 -135q0 -64 -89 -236h117q5 0 7 -5zM392.5 618q-38.5 0 -65.5 -27.5t-27 -66t27 -65.5t65.5 -27t65.5 27t27 65.5t-27 66 t-65.5 27.5zM70 13h645l-109 260h-120q-21 -39 -44.5 -80t-36.5 -62l-13 -21q-46 75 -93 163h-120z"/>
<glyph glyph-name="unie94e" unicode="" d="M50 397v322h322v-322h-322zM126 643v-171h170v171h-170zM444 719h322v-322h-322v322zM690 472v171h-171v-171h171zM50 3v322h322v-322h-322zM126 249v-170h170v170h-170zM444 3v322h322v-322h-322zM519 249v-170h171v170h-171z"/>
<glyph glyph-name="unie950" unicode="" d="M294 488l89 180q8 16 25 16t25 -16l89 -180q7 -13 21 -16l199 -29q17 -2 22.5 -18.5t-6.5 -28.5l-145 -140q-10 -10 -8 -25l34 -199q3 -16 -10.5 -26.5t-29.5 -2.5l-178 94q-13 7 -26 0l-178 -94q-15 -8 -29 2t-11 27l34 199q2 14 -8 25l-145 140q-12 12 -6.5 28.5 t22.5 18.5l199 29q15 3 21 16z"/>
<glyph glyph-name="unie951" unicode="" horiz-adv-x="677" d="M627 631q0 -12 -7.5 -22.5t-20.5 -13.5v-322q28 -17 28 -50v-165q0 -24 -17 -41t-41 -17h-461q-24 0 -41 17t-17 41v165q0 20 11.5 35.5t30.5 20.5v315h-4q-16 0 -27 11t-11 26v43q0 15 11 26t27 11h502q15 0 26 -11t11 -26v-43zM553 282v312h-415v-312h55q2 15 8 29 t15 25.5t21 20.5t26 14.5t30 7.5q-40 25 -40 72q0 36 25 61.5t61 25.5t61.5 -25.5t25.5 -61.5q0 -47 -40 -72q39 -4 67 -31t33 -66h67z"/>
<glyph glyph-name="unie952" unicode="" horiz-adv-x="610" d="M99 77q0 -11 8.5 -19.5t19.5 -8.5h356v-21q0 -11 -8 -19.5t-20 -8.5h-377q-11 0 -19.5 8.5t-8.5 19.5v583q0 12 8.5 20t19.5 8h21v-562zM542 593q18 -16 18 -40v-448q0 -11 -8 -19.5t-20 -8.5h-377q-11 0 -19.5 8.5t-8.5 19.5v583q0 11 8.5 19.5t19.5 8.5h228 q24 0 42 -16zM382 666v-103q0 -6 4 -10t10 -4h117q6 0 7 3t-3 7l-124 112q-5 4 -8 2.5t-3 -7.5zM165 674q-5 0 -9 -4t-4 -9.5t4 -9.5t9 -4h175q6 0 10 4t4 9.5t-4 9.5t-10 4h-175zM165 599q-5 0 -9 -4t-4 -9.5t4 -9.5t9 -4h175q6 0 10 4t4 9.5t-4 9.5t-10 4h-175zM396 291 h-97q5 17 15 29q17 20 46 20t44 -15l10 49q-22 11 -51 11q-54 0 -88 -36q-22 -23 -29 -58h-21l-6 -28h23v-14v-9h-17l-6 -27h26q8 -36 30 -60q33 -35 85 -35q30 0 53 11v54q-20 -20 -54 -20q-28 0 -46 20q-9 11 -13 30h80l6 27h-90v13v10h94zM517 423q2 0 4.5 1t4.5 3t3 4.5 t1 4.5q0 6 -4 10t-9 4h-352q-5 0 -9 -4t-4 -9.5t4 -9.5t9 -4h352zM517 498q2 0 4.5 1t4.5 2.5t3 4t1 5.5t-1 5.5t-3 4t-4.5 2.5t-4.5 1h-352q-2 0 -4.5 -1t-4.5 -2.5t-3 -4t-1 -5.5q0 -5 4 -9t9 -4h352z"/>
<glyph glyph-name="unie953" unicode="" d="M706 251h60v-251h-60v64h-596v-64h-60v329h60v-184h596v106zM174.5 163q-19.5 0 -33.5 13.5t-14 33t14 33t33.5 13.5t33 -13.5t13.5 -33t-13.5 -33t-33 -13.5zM607 242q33 0 56 -23.5t23 -55.5h-445q0 32 23 55.5t56 23.5h287z"/>
<glyph glyph-name="unie954" unicode="" horiz-adv-x="810" d="M707 543q53 -84 53 -187q0 -99 -51 -183q-4 -5 -10 -14.5t-9 -14.5q-49 -67 -124.5 -105.5t-160.5 -38.5q-84 0 -159.5 38.5t-125.5 105.5q-6 9 -19 29q-51 82 -51 183q0 99 53 187q6 10 19 28q51 67 125 103.5t158 36.5q56 0 108 -16.5t96.5 -48t79.5 -75.5 q15 -22 18 -28zM541 177q-52 7 -120 9v-143q9 1 27 8q41 22 71 78q13 23 22 48zM421 225q78 -3 131 -10q13 48 17 116h-148v-106zM547 113q-13 -24 -29 -44q74 30 122 87q-32 9 -68 15q-9 -26 -25 -58zM601 380h110q-5 75 -49 144q-36 -10 -80 -18q17 -58 19 -126zM571 543 q22 4 65 14q-48 55 -119 84q18 -20 30 -44q12 -22 24 -54zM423 491v-111h146q-1 61 -17 121q-69 -10 -129 -10zM421 531q50 0 118 8q-12 31 -20 44q-30 56 -71 78q-18 8 -27 9v-139zM712 331h-110q-4 -69 -18 -121q43 -8 82 -19q41 66 46 140zM227 210q-16 61 -18 121h-110 q6 -74 46 -140q42 12 82 19zM390 331h-148q2 -59 18 -116q68 10 130 10v106zM239 172q-36 -8 -67 -15q49 -60 121 -87q-16 20 -28 44q-13 22 -26 58zM390 491q-78 2 -129 10q-17 -57 -19 -121h148v111zM263 598q13 24 29 44q-69 -29 -118 -84q39 -9 65 -14q16 38 24 54z M272 539q66 -8 118 -8v139q-9 -1 -26 -9q-42 -22 -72 -78q-7 -14 -20 -44zM99 380h110q2 67 19 126q-39 7 -80 18q-44 -69 -49 -144zM390 186q-71 -3 -119 -10q6 -18 21 -48q30 -56 72 -78q11 -6 26 -9v145z"/>
<glyph glyph-name="unie955" unicode="" horiz-adv-x="798" d="M748 454l-349 -313l-349 313h698zM50 376l172 -149l-172 -155v304zM748 72l-172 155l172 149v-304zM399 72l136 117l213 -189h-698l212 189z"/>
<glyph glyph-name="unie956" unicode="" horiz-adv-x="474" d="M326 721q63 0 98 -5v-114h-68q-37 0 -50 -16t-13 -47v-82h127l-17 -128h-110v-329h-132v329h-111v128h111v95q0 80 45 124.5t120 44.5z"/>
<glyph glyph-name="unie957" unicode="" horiz-adv-x="813" d="M491 345q4 -19 4 -38q0 -64 -27 -114.5t-77 -78.5t-114 -28q-46 0 -88 18t-72.5 48t-48.5 72t-18 88.5t18 88.5t48.5 72t72.5 48t88 18q88 0 152 -59l-62 -59q-36 35 -90 35q-38 0 -70.5 -19.5t-51.5 -52.5t-19 -71.5t19 -71.5t51.5 -52.5t70.5 -19.5q25 0 46.5 7.5 t35.5 18t24.5 24t15.5 25.5t6 23h-128v78h214zM698 345h65v-65h-65v-65h-65v65h-65v65h65v65h65v-65z"/>
<glyph glyph-name="unie958" unicode="" horiz-adv-x="811" d="M677 510q42 5 84 23q-30 -45 -73 -76v-19q0 -58 -17 -116.5t-52 -112t-83.5 -95t-116.5 -66t-145 -24.5q-123 0 -224 65q16 -2 35 -2q102 0 181 63q-47 1 -84.5 29t-51.5 72q15 -2 27 -2q20 0 39 4q-51 11 -84 51t-33 92v2q31 -17 66 -18q-30 20 -47.5 52t-17.5 69 q0 40 20 74q54 -68 132.5 -108t167.5 -45q-4 17 -4 34q0 60 43 102.5t103 42.5q63 0 106 -46q50 10 93 35q-17 -52 -64 -80z"/>
<glyph glyph-name="unie959" unicode="" horiz-adv-x="804" d="M59 430h151v-454h-151v454zM196 626.5q23 -22.5 24 -55.5q0 -34 -23.5 -56.5t-62.5 -22.5h-1q-37 0 -60 22.5t-23 56.5q0 33 23.5 55.5t61.5 22.5t61 -22.5zM706.5 389q47.5 -52 47.5 -153v-260h-151v243q0 48 -18.5 75.5t-57.5 27.5q-29 0 -48.5 -16t-29.5 -39 q-5 -14 -5 -37v-254h-151q1 178 1 297v135l-1 22h151v-66h-1q9 15 19 26t26 24t39.5 20t52.5 7q79 0 126.5 -52z"/>
<glyph glyph-name="unie95b" unicode="" d="M407.5 542q76.5 0 130 -53.5t53.5 -130t-53.5 -130t-130 -53.5t-130 53.5t-53.5 130t53.5 130t130 53.5zM492 275q35 35 35 84t-35 84t-84.5 35t-84.5 -35t-35 -84t35 -84t84.5 -35t84.5 35zM598.5 593q17.5 0 30.5 -12.5t13 -30.5t-13 -30.5t-30.5 -12.5t-30 12.5 t-12.5 30.5t12.5 30.5t30 12.5zM763 507q2 -41 3 -148q0 -107 -3 -148q-4 -97 -57.5 -150t-150.5 -58q-41 -2 -147.5 -2t-147.5 2q-97 5 -150 58t-58 150q-2 41 -2 148q0 106 2 148q5 96 58 149.5t150 57.5q41 3 148 3t147 -3q97 -4 150.5 -57.5t57.5 -149.5zM701 323v18v13 v5v5v13v18q1 32 0 49q0 17 -1 45t-4.5 47.5t-8.5 33.5q-10 23 -27.5 41t-40.5 27q-14 5 -34 9q-20 3 -48 4t-44 2h-50q-30 -1 -35 -1h-5t-13 0.5t-18 0.5h-49q-18 -1 -45 -2q-28 -1 -48 -4.5t-33 -8.5q-24 -9 -41.5 -27t-26.5 -41q-5 -14 -8.5 -33.5t-5.5 -47.5 q-1 -28 -1 -45v-49v-36v-36v-49q0 -16 1 -45q2 -28 5.5 -48t8.5 -33q9 -23 26.5 -41t41.5 -27q13 -5 33 -8.5t48 -4.5q29 -2 45 -2h49h36h4.5h13h17.5h50t44 2q29 1 48.5 4.5t33.5 8.5q23 9 41 27t27 41q5 13 8.5 33t4.5 48q1 29 1 45q1 17 0 49z"/>
<glyph glyph-name="unie95c" unicode="" horiz-adv-x="651" d="M564.5 604q36.5 -55 36.5 -123q0 -42 -8.5 -81.5t-26 -76t-43 -64.5t-62.5 -44.5t-81 -16.5q-29 0 -58 14t-41 38q-5 -19 -12 -48q-9 -33 -11 -41q-2 -9 -8 -31q-7 -21 -12 -30q-1 -4 -5.5 -13t-7.5 -14q-9 -18 -20 -34t-27 -37l-6 -2l-4 4q-6 68 -6 81q0 40 9 89 q9 50 29 124q19 75 22 87q-14 28 -14 73q0 35 22.5 66.5t57.5 31.5q26 0 40.5 -17.5t14.5 -43.5q0 -29 -19 -82.5t-19 -80.5t19.5 -45t46.5 -18q24 0 44 11t34 29.5t24.5 41t16 47.5t8.5 47.5t3 42.5q0 75 -47 116.5t-123 41.5q-86 0 -143.5 -56t-57.5 -141q0 -19 5 -37 t12 -28q5 -9 11 -19t6 -13q0 -13 -6.5 -32t-16.5 -19q-1 0 -7 1q-22 7 -39 24.5t-26.5 40.5t-14 46.5t-4.5 45.5q0 47 16 88t44.5 71.5t65.5 53t79.5 33.5t87.5 11q68 0 126.5 -28.5t95 -83.5z"/>
<glyph glyph-name="unie95d" unicode="" horiz-adv-x="693" d="M633 344q10 -45 10 -141q0 -93 -10 -140q-6 -23 -23.5 -39t-40.5 -19q-74 -8 -222.5 -8t-222.5 8q-23 3 -40.5 19t-23.5 39q-10 45 -10 140q0 94 10 141q6 23 23.5 39t41.5 19q73 8 221.5 8t222.5 -8q23 -3 41 -19t23 -39zM219 303v38h-125v-38h42v-228h40v228h43z M327 75v198h-35v-151q-12 -17 -23 -17q-7 0 -8 8q-1 2 -1 14v146h-35v-156q0 -20 3 -30q5 -14 23 -14q19 0 41 24v-22h35zM464 135v78q0 30 -4 40q-7 23 -28 23q-20 0 -38 -22v87h-35v-266h35v20q18 -22 38 -22q21 0 28 22q4 10 4 40zM527 167h72v42q0 31 -11 46 q-15 21 -42 21q-28 0 -43 -21q-11 -15 -11 -46v-70q0 -31 11 -46q16 -20 43 -20q29 0 44 21q7 11 8 21q1 4 1 24v5h-37v-25q-3 -14 -16 -14q-19 0 -19 28v34zM448 443q-18 0 -23 15q-3 10 -3 30v158h36v-147v-14q2 -9 9 -9q11 0 23 17v153h36v-200h-36v22q-22 -25 -42 -25z M412 243q16 0 16 -27v-84q0 -27 -16 -27q-9 0 -18 9v120q9 9 18 9zM338 443q-27 0 -42 21q-11 15 -11 47v70q0 32 11 47q15 20 42 20t43 -20q11 -15 11 -47v-70q0 -32 -11 -47q-16 -21 -43 -21zM321 588v-84q0 -28 17 -28t17 28v84q0 28 -17 28t-17 -28zM196 555 q-6 29 -24 84q-15 42 -26 75h42l29 -105l27 105h41l-49 -159v-109h-40v109zM545 243q18 0 18 -27v-19h-36v19q0 27 18 27z"/>
<glyph glyph-name="unie95e" unicode="" horiz-adv-x="785" d="M635 654q106 -3 100 -137q-5 -99 -140 -274q-140 -181 -237 -181q-59 0 -101 110q-19 72 -55 203q-30 110 -66 110q-8 0 -54 -31l-32 41l45 40t55 49q66 58 102 61q40 4 64 -23t34 -86q19 -121 28 -157q23 -104 50 -104q22 0 65 67q43 68 46 104q5 58 -46 58 q-24 0 -51 -11q51 166 193 161z"/>
<glyph glyph-name="unie95f" unicode="" horiz-adv-x="710" d="M237 555l71 -123q-4 -8 -111 -198q-12 -20 -28 -20h-103q-10 0 -14 7.5t0 15.5l110 194v1l-70 120q-5 10 0 16q3 7 13 7h104q17 0 28 -20zM657 694l-228 -405l145 -266q5 -9 1 -16q-5 -7 -14 -7h-104q-18 0 -28 20l-147 269q8 14 230 408q11 19 28 19h104q9 0 13 -6 q5 -7 0 -16z"/>
<glyph glyph-name="unie960" unicode="" horiz-adv-x="798" d="M399 0q-95 0 -175.5 46.5t-127 127t-46.5 175t46.5 175t127 127t175.5 46.5t175 -46.5t127 -127t47 -175t-47 -175t-127 -127t-175 -46.5z"/>
<glyph glyph-name="unie961" unicode="" horiz-adv-x="794" d="M397 702q94 0 174 -46.5t126.5 -126t46.5 -174t-46.5 -174.5t-126.5 -126t-174 -46t-174 46t-126.5 126t-46.5 174.5t46.5 174t126.5 126t174 46.5zM397 121q64 0 118 31t85 85.5t31 117.5q0 97 -68.5 166t-165.5 69t-166 -69t-69 -166t69 -165.5t166 -68.5z"/>
<glyph glyph-name="unie962" unicode="" horiz-adv-x="475" d="M102 349l317 -318q6 -5 6 -12.5t-5.5 -13t-13 -5.5t-13.5 5l-343 344l343 343q6 6 13.5 6t13 -5.5t5.5 -13.5t-6 -13z"/>
<glyph glyph-name="unie963" unicode="" horiz-adv-x="475" d="M82 692l343 -343l-343 -344q-6 -5 -13.5 -5t-13 5.5t-5.5 13t5 13.5l318 317l-318 317q-5 5 -5 13t5.5 13.5t13 5.5t13.5 -6z"/>
<glyph glyph-name="unie964" unicode="" horiz-adv-x="785" d="M576 300q5 0 8.5 -3.5t3.5 -8.5v-123q0 -45 -32.5 -77.5t-77.5 -32.5h-318q-45 0 -77.5 32.5t-32.5 77.5v318q0 46 32.5 78t77.5 32h269q5 0 8.5 -3.5t3.5 -8.5v-24q0 -6 -3.5 -9.5t-8.5 -3.5h-269q-25 0 -43 -18t-18 -43v-318q0 -25 18 -43t43 -18h318q25 0 43 18t18 43 v123q0 5 3.5 8.5t8.5 3.5h25zM727.5 635q7.5 -7 7.5 -17v-196q0 -10 -7.5 -17t-17.5 -7t-17 7l-67 67l-249 -249q-4 -4 -9 -4t-9 4l-43 44q-4 3 -4 8t4 9l249 249l-68 68q-7 7 -7 17t7.5 17t17.5 7h195q10 0 17.5 -7z"/>
<glyph glyph-name="unie965" unicode="" horiz-adv-x="560" d="M50 347.5q0 11.5 8 20.5l330 329q8 9 20 9t20 -9l74 -74q8 -8 8 -19.5t-8 -19.5l-236 -236l236 -236q8 -9 8 -20.5t-8 -19.5l-74 -74q-8 -8 -20 -8t-20 8l-330 330q-8 8 -8 19.5z"/>
<glyph glyph-name="unie966" unicode="" horiz-adv-x="560" d="M510 347.5q0 -11.5 -8 -19.5l-330 -330q-8 -8 -19.5 -8t-20.5 8l-74 74q-8 8 -8 19.5t8 20.5l236 236l-236 235q-8 9 -8 20.5t8 19.5l74 74q9 9 20.5 9t19.5 -9l330 -329q8 -9 8 -20.5z"/>
<glyph glyph-name="unie967" unicode="" horiz-adv-x="811" d="M405.5 119q-11.5 0 -19.5 8l-328 328q-8 8 -8 19.5t8 20.5l74 73q8 8 19.5 8t19.5 -8l235 -235l234 235q8 8 19.5 8t20.5 -8l73 -73q8 -9 8 -20.5t-8 -19.5l-327 -328q-9 -8 -20.5 -8z"/>
<glyph glyph-name="unie968" unicode="" horiz-adv-x="811" d="M405.5 576q11.5 0 20.5 -8l327 -328q8 -8 8 -19.5t-8 -19.5l-73 -74q-9 -8 -20.5 -8t-19.5 8l-234 235l-235 -235q-8 -8 -19.5 -8t-19.5 8l-74 74q-8 8 -8 19.5t8 19.5l328 328q8 8 19.5 8z"/>
<glyph glyph-name="unie969" unicode="" horiz-adv-x="808" d="M587 83q8 8 8 19.5t-8 19.5t-19.5 8t-19.5 -8t-8 -19.5t8 -19.5t19.5 -8t19.5 8zM695.5 83q8.5 8 8.5 19.5t-8.5 19.5t-19.5 8t-19 -8t-8 -19.5t8 -19.5t19 -8t19.5 8zM746 227q12 -12 12 -29v-136q0 -17 -12 -29t-29 -12h-626q-17 0 -29 12t-12 29v136q0 17 12 29t29 12 h198l57 -58q25 -24 58 -24t58 24l58 58h197q17 0 29 -12zM595 457q18 0 25 -17t-6 -30l-191 -190q-7 -9 -18.5 -9t-19.5 9l-191 190q-13 13 -6 30t25 17h109v190q0 11 8 19t20 8h108q12 0 20 -8t8 -19v-190h109z"/>
<glyph glyph-name="unie96a" unicode="" horiz-adv-x="798" d="M731 403q17 -18 17 -41q0 -24 -17 -40l-291 -292q-18 -17 -41 -17q-24 0 -40 17l-292 292q-17 16 -17 40t17 41l33 33q18 17 41 17q24 0 40 -17l132 -131v315q0 23 17 40t40 17h58q23 0 40 -17t17 -40v-315l132 131q16 17 40 17q23 0 41 -17z"/>
<glyph glyph-name="unie96b" unicode="" horiz-adv-x="811" d="M730 315q31 -39 31 -88q0 -59 -42 -101t-100 -42h-403q-69 0 -117.5 49t-48.5 117q0 48 26 89t70 61q-1 11 -1 16q0 79 55.5 134.5t133.5 55.5q58 0 106 -32.5t70 -85.5q26 23 61 23q39 0 67 -28t28 -67q0 -28 -15 -51q48 -11 79 -50zM520 301q4 4 4 8q0 6 -3.5 9t-8.5 3 h-83v131q0 4 -3.5 7.5t-8.5 3.5h-71q-5 0 -8.5 -3.5t-3.5 -7.5v-131h-83q-4 0 -7.5 -3.5t-3.5 -8.5t3 -8l130 -130q3 -4 8.5 -4t8.5 4z"/>
<glyph glyph-name="unie96c" unicode="" horiz-adv-x="530" d="M458.5 682q21.5 -21 21.5 -51v-572q0 -29 -21.5 -50.5t-50.5 -21.5h-286q-29 0 -50.5 21.5t-21.5 50.5v572q0 29 21 50.5t51 21.5h286q29 0 50.5 -21zM220 631q-9 0 -9 -8.5t9 -8.5h90q9 0 9 8.5t-9 8.5h-90zM296.5 27q13.5 13 13.5 31.5t-13.5 31.5t-32 13t-31.5 -13 t-13 -31.5t13 -31.5t31.5 -13t32 13zM426 148v394q0 7 -5.5 12.5t-12.5 5.5h-286q-8 0 -13 -5.5t-5 -12.5v-394q0 -7 5 -12.5t13 -5.5h286q7 0 12.5 5.5t5.5 12.5z"/>
<glyph glyph-name="unie96d" unicode="" horiz-adv-x="666" d="M615 511q1 -19 0 -41q-5 -71 -39 -127q-41 -71 -114 -106q-31 -14 -66 -21q-37 -8 -77 -6q-53 2 -98 20q-57 22 -98 66q-47 52 -65 124q-5 22 -7 44q-2 23 -1 43q3 41 17 71q20 42 61 65q29 16 66 22q15 2 30 2.5t37 -3.5q30 -6 54 -16q2 -1 15 -8l2 -1q19 9 19 10 q24 10 52 15q20 3 36 4q15 0 34 -3q26 -4 48 -14q35 -15 57 -41t31 -62q5 -17 6 -37zM333 565q-12 -16 -12.5 -42.5t13.5 -47.5q1 1 1 2q7 12 10 24q3 15 0 34q-2 16 -10 28zM172 394q2 1 16 4q29 7 38 9q33 10 61 26q1 0 8 5q-2 0 -2 1q-1 0 -2 2q-12 14 -18 34 q-10 34 -4 72q5 36 15 48q-4 1 -7 2q-17 3 -44 4q-20 0 -38 -7q-46 -18 -59 -64q-8 -26 -4 -59q4 -29 17 -56q7 -14 16 -25zM458 347v1l-2 0.5t-3 0.5q-34 8 -61 18q-34 14 -57 32q-2 1 -3 0q-44 -30 -108 -47q-1 0 -17 -4q11 -7 12 -8q26 -18 59 -28q24 -7 47 -8 q22 -1 44 4q48 10 89 39zM534 473q3 25 -1 46q-10 51 -55 72q-19 9 -37 9q-25 1 -46 -2l-15 -3q21 -35 20 -81q-1 -42 -27 -77q9 -5 10 -5q27 -15 59 -24q9 -2 38 -9q11 -3 14 -4l7 -5l0.5 0.5t0.5 1.5q27 37 32 81zM119 61l22 82h36v-119h-23v93l-23 -93h-23l-24 93v-93 h-22v119h36zM216 24h-24v119h24v-119zM302 63v80h23v-119h-24l-48 77v-77h-23v119h24zM425 67h-28v20h52v-47q-8 -7 -22 -13t-29 -6q-18 0 -32 8t-21 22.5t-7 31.5q0 19 7.5 33.5t22.5 22.5q12 6 29 6q22 0 34.5 -9.5t15.5 -25.5l-23 -5q-3 9 -10 14t-17 5q-16 0 -25.5 -10 t-9.5 -30q0 -21 9.5 -31.5t25.5 -10.5q7 0 14.5 3t13.5 7v15zM497 143h25l48 -119h-26l-10 27h-48l-10 -27h-25zM493 71h33l-16 44zM601 24h-23v22h23v-22zM577 115v28h25v-28l-6 -61h-13z"/>
<glyph glyph-name="unie96f" unicode="" horiz-adv-x="815" d="M468 496q0 -25 -17.5 -42.5t-42.5 -17.5t-42.5 18t-17.5 42.5t17.5 42.5t42.5 17.5t42.5 -18t17.5 -42.5zM467 331h77l69 -165l-412 1l70 165h77l59 -105q29 48 60 104zM408.5 715q97.5 0 179.5 -48.5t129.5 -131t47.5 -179.5t-48.5 -179t-131 -129.5t-179.5 -47.5 t-179 48t-129.5 130.5t-47.5 180t48 179.5t130.5 129.5t180 47.5zM629.5 155q2.5 3 0.5 7l-75 179q-2 4 -6 4h-75q57 110 58 151q0 51 -36.5 87.5t-87.5 36.5t-87.5 -36t-36.5 -87q0 -41 57 -151h-75q-5 0 -6 -4l-76 -179q-2 -3 0 -6.5t6 -3.5l434 -1q3 0 5.5 3z"/>
<glyph glyph-name="unie971" unicode="" horiz-adv-x="787" d="M394 259l343 199v-80l-343 -198v79zM394 458v-80l-344 -199v80zM737 557v-80l-687 -397v80zM394 557v-80l-344 -198v80zM394 80v80l343 199v-80z"/>
<glyph glyph-name="unie972" unicode="" horiz-adv-x="811" d="M295 133l7 33h18v-49h-10v41l-10 -41h-11l-9 42v-1v-41h-11v49h19zM342 152q16 0 16 -20h-21q-1 -9 5 -9q5 0 5 5h11q-1 -6 -6 -9q-4 -3 -9 -3q-17 0 -17 19q0 17 16 17zM337 139h10q0 2 -1 5q-2 2 -4 2q-5 0 -5 -7zM384 137q6 -2 6 -9q0 -12 -14 -12t-14 12h11 q-1 -1 0 -2.5t3 -1.5q4 0 4 3q0 2 -9 5t-9 10q0 10 14 10q13 0 14 -11h-11v3q-1 1 -4 1q-2 0 -2 -3q0 -1 11 -5zM417 137q6 -2 6 -9q0 -12 -14 -12q-15 0 -15 12h11q0 -1 1 -2.5t2 -1.5q4 0 4 3q0 2 -8.5 5t-8.5 10q0 10 13 10q14 0 14 -11h-10q0 2 -1 3t-3 1q-3 0 -3 -3 q0 -1 12 -5zM442.5 152q15.5 0 15.5 -20h-21q0 -9 5 -9t6 5h10q0 -6 -6 -9q-3 -3 -9 -3q-16 0 -16 19q0 17 15.5 17zM437 139h11q0 2 -2 5q-1 2 -4 2q-4 0 -5 -7zM509 133l6 33h19v-49h-11v41l-10 -41h-10l-10 42v-1v-41h-10v49h19zM570 156h-10v10h10v-10zM555 156h-10v10 h10v-10zM562 151h11v-25q0 -5 1 -9h-12v4q-4 -5 -9 -5q-11 0 -11 12v23h11v-20q0 -7 4 -7q5 0 5 8v19zM601 152q11 0 11 -12v-23h-11v20q0 7 -4 7q-5 0 -5 -7v-20h-11v25q0 5 -1 9h12v-4q3 5 9 5zM634 145q-4 0 -4 -10.5t4 -10.5t4 7h12q0 -7 -5 -11q-4 -4 -11 -4 q-16 0 -16 18t16 18q15 0 16 -13h-12q0 3 -1 4.5t-3 1.5zM676 152q11 0 11 -12v-23h-11v20q-1 7 -5 7q-5 0 -5 -7v-20h-11v49h11v-19q4 5 10 5zM708 152q16 0 16 -20h-21q0 -9 5 -9t5 5h11q-1 -6 -6 -9q-3 -3 -9 -3q-17 0 -17 19q0 17 16 17zM703 139h11q0 2 -2 5q-1 2 -4 2 q-4 0 -5 -7zM750 152q11 0 11 -12v-23h-11v20q0 7 -4 7q-5 0 -5 -7v-20h-11v25v9h11v-4q4 5 9 5zM489 407l-220 -127v51l220 127v-51zM269 458v-51l-219 -127v51zM489 521v-51l-439 -253v51zM269 521v-51l-219 -126v51zM489 395v-51l-220 -127v51z"/>
<glyph glyph-name="unie973" unicode="" horiz-adv-x="815" d="M571 337l177 -177q17 -17 17 -41t-17 -41l-82 -81q-17 -17 -41 -17t-41 17l-177 176l-177 -176q-16 -17 -40.5 -17t-40.5 17l-82 81q-17 17 -17 41t17 41l177 177l-177 177q-17 17 -17 41t17 41l82 81q16 17 40.5 17t40.5 -17l177 -176l177 176q17 17 41 17t41 -17 l82 -81q17 -17 17 -41t-17 -41z"/>
<glyph glyph-name="unie974" unicode="" horiz-adv-x="797" d="M425 369l317 -317q5 -6 5 -13.5t-5 -13t-13 -5.5t-13 6l-317 317l-317 -317q-6 -6 -13.5 -6t-13 5.5t-5.5 13t5 13.5l318 317v0l-318 317q-5 6 -5 13.5t5.5 13t13 5.5t13.5 -6l317 -317l317 317q5 6 13 6t13 -5.5t5 -13t-5 -13.5l-317 -317v0z"/>
<glyph glyph-name="unie975" unicode="" horiz-adv-x="840" d="M546 358l236 -236q8 -8 8 -19.5t-8 -20.5l-74 -74q-8 -8 -19.5 -8t-20.5 8l-329 330q-9 8 -9 20t9 20l329 330q9 8 20.5 8t19.5 -8l74 -74q8 -9 8 -20.5t-8 -19.5zM184 716q11 0 19 -8t8 -19v-662q0 -11 -8 -19t-19 -8h-107q-11 0 -19 8t-8 19v662q0 11 8 19t19 8h107z "/>
<glyph glyph-name="unie976" unicode="" horiz-adv-x="848" d="M172 708l330 -330q8 -8 8 -19.5t-8 -20.5l-330 -330q-8 -8 -19.5 -8t-20.5 8l-74 74q-8 9 -8 20.5t8 19.5l236 236l-236 236q-8 8 -8 19.5t8 20.5l74 74q9 8 20.5 8t19.5 -8zM771 716q11 0 19 -8t8 -19v-662q0 -11 -8 -19t-19 -8h-107q-11 0 -19 8t-8 19v662q0 11 8 19 t19 8h107z"/>
<glyph glyph-name="unie977" unicode="" horiz-adv-x="618" d="M536 293q13 0 22.5 -9.5t9.5 -22.5t-10 -23l-226 -227q-10 -9 -23 -9t-23 9l-226 227q-10 10 -10 23t9.5 22.5t22.5 9.5h454zM82 423q-13 0 -22.5 9.5t-9.5 22.5t10 23l226 227q10 9 23 9t23 -9l226 -227q10 -10 10 -23t-9.5 -22.5t-22.5 -9.5h-454z"/>
<glyph glyph-name="unie978" unicode="" horiz-adv-x="804" d="M409 204q-6 0 -9.5 4t-3.5 9v77q0 6 3.5 9.5t9.5 3.5h256q5 0 8.5 -3.5t3.5 -9.5v-77q0 -5 -3.5 -9t-8.5 -4h-256zM409 409q-6 0 -9.5 3.5t-3.5 9.5v77q0 5 3.5 9t9.5 4h179q5 0 9 -4t4 -9v-77q0 -6 -4 -9.5t-9 -3.5h-179zM409 614q-6 0 -9.5 3.5t-3.5 9.5v77 q0 5 3.5 8.5t9.5 3.5h102q6 0 9.5 -3.5t3.5 -8.5v-77q0 -6 -3.5 -9.5t-9.5 -3.5h-102zM319 153q6 0 9.5 -3.5t3.5 -9.5q0 -4 -4 -9l-128 -128q-4 -3 -9 -3t-9 3l-128 128q-6 7 -3 14q3 8 12 8h77v551q0 5 3.5 8.5t9.5 3.5h76q6 0 9.5 -3.5t3.5 -8.5v-551h77zM750.5 98.5 q3.5 -3.5 3.5 -9.5v-76q0 -6 -3.5 -9.5t-9.5 -3.5h-332q-6 0 -9.5 3.5t-3.5 9.5v76q0 6 3.5 9.5t9.5 3.5h332q6 0 9.5 -3.5z"/>
<glyph glyph-name="unie979" unicode="" horiz-adv-x="797" d="M316 155q6 0 9.5 -3.5t3.5 -8.5t-4 -10l-126 -126q-4 -4 -9 -4t-9 4l-127 126q-6 7 -3 14q3 8 12 8h76v545q0 6 3.5 9.5t9.5 3.5h76q5 0 8.5 -3.5t3.5 -9.5v-545h76zM507 105q5 0 8.5 -4t3.5 -9v-76q0 -6 -3.5 -9.5t-8.5 -3.5h-102q-5 0 -8.5 3.5t-3.5 9.5v76q0 5 3.5 9 t8.5 4h102zM659 510q5 0 8.5 -3.5t3.5 -9.5v-76q0 -5 -3.5 -8.5t-8.5 -3.5h-254q-5 0 -8.5 3.5t-3.5 8.5v76q0 6 3.5 9.5t8.5 3.5h254zM743.5 709.5q3.5 -3.5 3.5 -9.5v-76q0 -5 -3.5 -8.5t-8.5 -3.5h-330q-5 0 -8.5 3.5t-3.5 8.5v76q0 6 3.5 9.5t8.5 3.5h330q5 0 8.5 -3.5z M583 307q5 0 8.5 -3.5t3.5 -8.5v-76q0 -6 -3.5 -9.5t-8.5 -3.5h-178q-5 0 -8.5 3.5t-3.5 9.5v76q0 5 3.5 8.5t8.5 3.5h178z"/>
<glyph glyph-name="unie97a" unicode="" horiz-adv-x="619" d="M384.5 170q6.5 -7 6.5 -16v-134q0 -9 -6.5 -16t-15.5 -7h-135q-9 0 -15.5 7t-6.5 16v134q0 9 6.5 16t15.5 7h135q9 0 15.5 -7zM546 580.5q23 -42.5 23 -89.5q0 -30 -9 -56.5t-19.5 -43t-30.5 -33.5t-32.5 -24.5t-34.5 -19.5q-23 -13 -38.5 -36.5t-15.5 -37.5 q0 -10 -6.5 -18.5t-15.5 -8.5h-135q-8 0 -14 10t-6 21v25q0 47 36.5 88.5t80.5 60.5q33 15 47 31.5t14 42.5q0 24 -26 42t-61 18q-36 0 -60 -16q-20 -15 -60 -65q-8 -9 -18 -9q-7 0 -14 4l-92 71q-7 5 -8.5 13.5t2.5 15.5q90 150 261 150q45 0 90.5 -17.5t82 -46.5 t59.5 -71.5z"/>
<glyph glyph-name="unie97b" unicode="" horiz-adv-x="429" d="M369 121.5q10 -9.5 10 -22.5v-66q0 -14 -10 -23.5t-23 -9.5h-263q-14 0 -23.5 9.5t-9.5 23.5v66q0 13 10 22.5t23 9.5h33v198h-33q-14 0 -23.5 9.5t-9.5 22.5v66q0 14 10 23.5t23 9.5h197q13 0 23 -10t10 -23v-296h33q13 0 23 -9.5zM303 713q10 -10 10 -23v-99 q0 -13 -10 -22.5t-23 -9.5h-131q-14 0 -23.5 9.5t-9.5 22.5v99q0 13 9.5 23t23.5 10h131q13 0 23 -10z"/>
<glyph glyph-name="unie97c" unicode="" horiz-adv-x="815" d="M53 697q9 20 30 20h649q21 0 30 -20q8 -21 -8 -35l-249 -250v-246q0 -14 -10 -23l-130 -130q-9 -10 -23 -10q-6 0 -12 3q-20 9 -20 30v376l-250 250q-16 14 -7 35z"/>
<glyph glyph-name="unie97d" unicode="" horiz-adv-x="326" d="M251 169.5q10 -9.5 10 -22.5v-114q0 -14 -10 -23.5t-23 -9.5h-130q-13 0 -23 9.5t-10 23.5v114q0 13 10 22.5t23 9.5h130q13 0 23 -9.5zM266.5 706.5q9.5 -9.5 9.5 -22.5l-14 -391q-1 -13 -11 -23t-23 -10h-130q-13 0 -23 10t-11 23l-14 391q0 13 9 22.5t23 9.5h162 q13 0 22.5 -9.5z"/>
<glyph glyph-name="unie97e" unicode="" horiz-adv-x="822" d="M669 317v-3v-215q0 -11 -8.5 -19.5t-20.5 -8.5h-172v172h-114v-172h-172q-12 0 -20.5 8.5t-8.5 19.5v215v2v1l258 212zM772.5 356q0.5 -6 -3.5 -11l-28 -33q-3 -4 -9 -5h-1q-6 0 -10 3l-310 259l-310 -259q-5 -3 -11 -3q-5 1 -9 5l-28 33q-3 5 -2.5 11t4.5 10l322 268 q14 12 34 12t34 -12l109 -92v88q0 6 4.5 10t10.5 4h86q6 0 10 -4t4 -10v-183l98 -81q5 -4 5.5 -10z"/>
<glyph glyph-name="unie97f" unicode="" horiz-adv-x="812" d="M749 524.5q13 -13.5 13 -31.5t-13 -31l-312 -312q-13 -13 -31 -13t-31 13l-312 312q-13 13 -13 31t13 31.5t32 13.5h623q18 0 31 -13.5z"/>
<glyph glyph-name="unie980" unicode="" horiz-adv-x="714" d="M650 368q14 -14 14 -34v-2q0 -20 -14 -34t-34 -14h-210v-210q0 -20 -14 -34t-34 -14h-1q-21 0 -35 14t-14 34v210h-210q-20 0 -34 14t-14 34v2q0 20 14 34t34 14h210v210q0 20 14 34t35 14h1q20 0 34 -14t14 -34v-210h210q20 0 34 -14z"/>
<glyph glyph-name="unie981" unicode="" d="M752 382.5q14 -14.5 14 -34.5v-2q0 -20 -14 -34.5t-35 -14.5h-618q-21 0 -35 14.5t-14 34.5v2q0 20 14 34.5t35 14.5h618q21 0 35 -14.5z"/>
<glyph glyph-name="unie982" unicode="" horiz-adv-x="806" d="M50 -31v494l443 -247zM620 652q45 0 76 -21t45.5 -59t14.5 -92v-264q-29 -6 -64 -6q-16 0 -32 1.5t-24 2.5l-8 2v248q0 31 -6 49t-17.5 25t-30.5 7q-40 0 -75 -41v-239l-116 70v129q0 81 -63 81q-15 0 -31.5 -9t-51.5 -32v-98l-105 70v158q17 9 46 9q8 0 15.5 -0.5t13 -2 t9.5 -2.5t6 -2h2l8 -37h4q16 13 27.5 21.5t28.5 18.5t35 14.5t38 4.5q83 0 119 -77q33 34 65 52.5t71 18.5z"/>
<glyph glyph-name="unie983" unicode="" horiz-adv-x="561" d="M280.5 717q95.5 0 163 -65.5t67.5 -158.5q0 -54 -25 -102l-206 -391q-207 394 -207 396q-23 46 -23 97q0 93 67.5 158.5t163 65.5zM280 358q57 0 97.5 39.5t40.5 95t-40.5 94.5t-97.5 39q-37 0 -68.5 -18t-50 -49t-18.5 -67t18.5 -67t50 -49t68.5 -18z"/>
<glyph glyph-name="unie984" unicode="" horiz-adv-x="815" d="M744 449h-90v-183h90q9 0 15 -6.5t6 -15.5v-223q0 -9 -6 -15t-15 -6h-223q-5 0 -10 3t-8 7.5t-3 10.5v91h-185v-91q0 -9 -6.5 -15t-15.5 -6h-222q-9 0 -15 6t-6 15v223q0 9 6 15.5t15 6.5h90v183h-90q-6 0 -10.5 3t-7.5 8t-3 10v224q0 8 6 14.5t15 6.5h222q9 0 15.5 -6.5 t6.5 -14.5v-91h185v91q0 8 6.5 14.5t14.5 6.5h223q9 0 15 -6.5t6 -14.5v-224q0 -8 -6 -14.5t-15 -6.5zM92 672v-180h180v180h-180zM500 244q0 9 6.5 15.5t14.5 6.5h90v183h-90q-5 0 -10 3t-8 8t-3 10v91h-185v-91q0 -5 -3 -10t-8 -8t-11 -3h-90v-183h90q6 0 11 -3t8 -8 t3 -11v-90h185v90zM723 223h-180v-181h180v181zM543 672v-180h180v180h-180z"/>
<glyph glyph-name="unie985" unicode="" horiz-adv-x="818" d="M766 162q2 -4 2 -11q0 -14 -5 -36t-11 -35q-11 -25 -62 -54q-48 -26 -95 -26q-14 0 -27 2t-29 6.5t-24 7.5q-10 3 -29 10q-20 8 -25 9q-49 18 -89 43q-65 40 -134.5 110t-110.5 134q-24 40 -42 90q-1 4 -9 24q-8 21 -10 29q-3 8 -8 24q-4 16 -6 29t-2 27q0 47 26 95 q29 51 54 62q13 6 35 11t36 5q7 0 11 -2q9 -3 27 -38q5 -10 15 -28q10 -19 18 -32q8 -15 16 -28q1 -1 9 -12q7 -11 10.5 -18.5t3.5 -14.5q0 -10 -14.5 -25.5t-31.5 -28t-31.5 -27t-14.5 -23.5q0 -4 2.5 -11t4 -10.5t7.5 -12.5q5 -8 6 -10q38 -70 88 -120t120 -88 q1 -1 9.5 -6t12.5 -7t11 -4.5t11 -2.5q9 0 23.5 14.5t27 31.5t28 31.5t25.5 14.5q7 0 14.5 -3.5t18.5 -10.5q11 -8 12 -9q13 -8 28 -16q14 -8 32 -18q19 -10 28 -15q35 -18 38 -27z"/>
<glyph glyph-name="unie986" unicode="" horiz-adv-x="815" d="M310 457h362v101h-65q-16 0 -27.5 11.5t-11.5 26.5v64h-258v-203zM624.5 302q3.5 4 3.5 9v53q0 6 -3.5 10t-9.5 4h-53q-6 0 -9.5 -4t-3.5 -10v-53q0 -5 3.5 -9t9.5 -4h53q6 0 9.5 4zM624.5 201q3.5 4 3.5 9v53q0 6 -3.5 10t-9.5 4h-53q-6 0 -9.5 -4t-3.5 -10v-53 q0 -5 3.5 -9t9.5 -4h53q6 0 9.5 4zM624.5 99.5q3.5 3.5 3.5 9.5v53q0 6 -3.5 9.5t-9.5 3.5h-53q-6 0 -9.5 -3.5t-3.5 -9.5v-53q0 -6 3.5 -9.5t9.5 -3.5h53q6 0 9.5 3.5zM523.5 302q3.5 4 3.5 9v53q0 6 -3.5 10t-9.5 4h-53q-6 0 -10 -4t-4 -10v-53q0 -5 4 -9t10 -4h53 q6 0 9.5 4zM523.5 201q3.5 4 3.5 9v53q0 6 -3.5 10t-9.5 4h-53q-6 0 -10 -4t-4 -10v-53q0 -5 4 -9t10 -4h53q6 0 9.5 4zM523.5 99.5q3.5 3.5 3.5 9.5v53q0 6 -3.5 9.5t-9.5 3.5h-53q-6 0 -10 -3.5t-4 -9.5v-53q0 -6 4 -9.5t10 -3.5h53q6 0 9.5 3.5zM422 302q4 4 4 9v53 q0 6 -4 10t-9 4h-53q-6 0 -10 -4t-4 -10v-53q0 -5 4 -9t10 -4h53q5 0 9 4zM422 201q4 4 4 9v53q0 6 -4 10t-9 4h-53q-6 0 -10 -4t-4 -10v-53q0 -5 4 -9t10 -4h53q5 0 9 4zM422 99.5q4 3.5 4 9.5v53q0 6 -4 9.5t-9 3.5h-53q-6 0 -10 -3.5t-4 -9.5v-53q0 -6 4 -9.5t10 -3.5h53 q5 0 9 3.5zM714 499q23 -14 37 -37.5t14 -50.5v-307q0 -42 -30 -72t-72 -30h-347q-26 0 -45 18.5t-19 45.5v613q0 16 11.5 27t27.5 11h269q16 0 35.5 -8t30.5 -19l61 -60q11 -12 19 -31t8 -35v-65zM115 573h51q27 0 46 -19t19 -46v-441q0 -27 -19 -46t-46 -19h-51 q-27 0 -46 19t-19 46v441q0 27 19 46t46 19z"/>
<glyph glyph-name="unie987" unicode="" horiz-adv-x="818" d="M749 620q19 -19 19 -46q0 -32 -19.5 -61t-48.5 -49q-151 -106 -188 -132q-3 -2 -17 -12q-13 -10 -21 -16q-9 -6 -21 -13q-13 -7 -23.5 -10.5t-19.5 -3.5h-1q-9 0 -20 3.5t-23 10.5q-13 8 -21 13.5t-22 15.5q-12 9 -17 12q-38 27 -105 74q-65 45 -82 58q-25 17 -47 46.5 t-22 55.5q0 31 16.5 52t47.5 21h590q26 0 45 -19zM728 426q23 16 40 35v-324q0 -27 -18.5 -46.5t-45.5 -19.5h-590q-26 0 -45 19.5t-19 46.5v324q18 -20 41 -35q145 -101 199 -141q22 -17 37 -27q14 -10 37.5 -20t44.5 -10h1q20 0 43.5 10t38 20t37.5 27q68 50 199 141z"/>
<glyph glyph-name="unie988" unicode="" horiz-adv-x="637" d="M577 496q10 -9 10 -21t-10 -21t-24 -9h-469q-14 0 -24 9t-10 21t10 21l235 209q10 9 23.5 9t23.5 -9zM577 257.5q10 -8.5 10 -21t-10 -20.5l-235 -209q-10 -9 -23.5 -9t-23.5 9l-235 209q-10 8 -10 20.5t10 21t24 8.5h469q14 0 24 -8.5z"/>
<glyph glyph-name="unie989" unicode="" horiz-adv-x="802" d="M130 444v-3h-17v65q0 30 21.5 51.5t51.5 21.5h430q30 0 51.5 -21.5t21.5 -51.5v-65h-17v3q0 28 -19.5 47.5t-46.5 19.5h-149q-36 0 -56 -30q-20 30 -55 30h-150q-27 0 -46.5 -19.5t-19.5 -47.5zM457 480h149q15 0 25 -10.5t10 -25.5v-3h-220v3q0 15 10.5 25.5t25.5 10.5z M196 480h150q14 0 24.5 -10.5t10.5 -25.5v-3h-220v3q0 15 10.5 25.5t24.5 10.5zM725 410q11 0 19 -8t8 -20v-162q0 -12 -8 -20t-19 -8h-55l10 -29q2 -6 1 -12t-4.5 -10.5t-9.5 -6.5q-5 -2 -9.5 -1.5t-8 2t-7 5t-4.5 7.5l-16 45h-444l-16 -45q-3 -9 -11.5 -12.5t-17.5 -0.5 t-13 11.5t-1 17.5l11 29h-52q-12 0 -20 8t-8 20v162q0 12 8 20t20 8h647z"/>
<glyph glyph-name="unie98a" unicode="" horiz-adv-x="761" d="M695.5 599q15.5 -15 15.5 -36v-510q0 -20 -15.5 -35.5t-35.5 -15.5h-559q-21 0 -36 15.5t-15 35.5v510q0 21 15 36t36 15h51v39q0 26 18.5 44.5t44.5 18.5h26q26 0 44.5 -18.5t18.5 -44.5v-39h152v39q0 26 19 44.5t45 18.5h25q27 0 45.5 -18.5t18.5 -44.5v-39h51 q20 0 35.5 -15zM215 53v115h-114v-115h114zM215 194v127h-114v-127h114zM215 347v114h-114v-114h114zM206 529q4 -4 9 -4h26q5 0 8.5 4t3.5 9v115q0 5 -3.5 8.5t-8.5 3.5h-26q-5 0 -9 -3.5t-4 -8.5v-115q0 -5 4 -9zM368 53v115h-127v-115h127zM368 194v127h-127v-127h127z M368 347v114h-127v-114h127zM520 53v115h-127v-115h127zM520 194v127h-127v-127h127zM520 347v114h-127v-114h127zM511 529q4 -4 9 -4h25q6 0 9.5 4t3.5 9v115q0 5 -3.5 8.5t-9.5 3.5h-25q-5 0 -9 -3.5t-4 -8.5v-115q0 -5 4 -9zM660 53v115h-115v-115h115zM660 194v127h-115 v-127h115zM660 347v114h-115v-114h115z"/>
<glyph glyph-name="unie98b" unicode="" d="M766 563h-151v151h151v-151zM578 563h-151v151h151v-151zM389 563h-151v151h151v-151zM201 563h-151v151h151v-151zM766 374h-151v151h151v-151zM578 374h-151v151h151v-151zM389 374h-151v151h151v-151zM201 374h-151v151h151v-151zM766 186h-151v151h151v-151zM578 186 h-151v151h151v-151zM389 186h-151v151h151v-151zM201 186h-151v151h151v-151zM766 -2h-151v150h151v-150zM578 -2h-151v150h151v-150zM389 -2h-151v150h151v-150zM201 -2h-151v150h151v-150z"/>
<glyph glyph-name="unie98c" unicode="" d="M766 537h-716v107h716v-107zM766 358h-716v107h716v-107zM766 179h-716v107h716v-107zM766 0h-716v107h716v-107z"/>
<glyph glyph-name="unie98d" unicode="" horiz-adv-x="814" d="M764 529h-453v100h453v-100zM764 362h-453v100h453v-100zM764 195h-453v101h453v-101zM764 29h-453v100h453v-100zM250 316h-196v25h196v-25zM247 213l-165 -160h168v-25h-200v26q157 152 164 159h-164v25h197v-25zM137 629h30l85 -209h-31l-25 63h-87l-23 -63h-30z M117 506h71l-22 58q-10 26 -15 43q-4 -20 -11 -40z"/>
<glyph glyph-name="unie98e" unicode="" horiz-adv-x="558" d="M291 264q-11 0 -18 8l-182 183q-13 12 -6 29q7 16 24 16h104v183q0 11 8 18.5t18 7.5h105q10 0 18 -7.5t8 -18.5v-183h104q17 0 24 -16q7 -17 -6 -29l-182 -183q-8 -8 -19 -8zM84 -4h-34v34h34v-34zM289.5 33q10.5 9 15.5 29l35 -11q-8 -30 -27 -44t-48 -14 q-36 0 -59 24.5t-23 66.5q0 45 23.5 70t60.5 25q33 0 54 -20q12 -12 18 -33l-36 -9q-3 14 -13 22.5t-25 8.5q-19 0 -31.5 -14.5t-12.5 -46.5q0 -34 12 -48.5t32 -14.5q14 0 24.5 9zM155 -4h-36v179h36v-179zM500.5 76.5q7.5 -11.5 7.5 -28.5q0 -15 -9 -28.5t-24.5 -20 t-38.5 -6.5q-34 0 -52.5 15.5t-21.5 45.5l35 4q3 -18 13 -26.5t26 -8.5q18 0 26.5 7.5t8.5 17.5q0 6 -3.5 10.5t-12.5 8.5q-7 2 -29 8q-30 7 -41 17q-17 15 -17 36q0 14 8 26t22.5 18.5t35.5 6.5q33 0 50.5 -15t17.5 -40l-36 -1q-2 13 -9.5 19.5t-23.5 6.5t-24 -7 q-6 -4 -6 -11q0 -6 5 -11q7 -6 33.5 -12t39 -13t20 -18.5z"/>
<glyph glyph-name="unie98f" unicode="" horiz-adv-x="815" d="M50 663h715v-623h-715v623zM671.5 611q-10.5 0 -18 -7.5t-7.5 -18t7.5 -18t17.5 -7.5q7 0 13 3.5t9 9.5t3 13q0 10 -7 17.5t-17.5 7.5zM105 611v-46h479v46h-479zM720 86v430h-615v-430h615zM658 255h-22v21h22v-21zM219 255h-19l-34 110h19l18 -64l6 -23q1 3 6 22l18 65 h19l17 -64l5 -21l7 21l19 64h18l-35 -110h-19l-18 66l-4 19zM374 255h-20l-34 110h20l17 -64l7 -23q1 3 6 22l17 65h20l16 -64l6 -21l6 21l19 64h18l-34 -110h-20l-17 66l-5 19zM528 255h-19l-34 110h19l18 -64l6 -23q1 3 6 22l18 65h19l17 -64l5 -21l7 21l19 64h18 l-35 -110h-19l-18 66l-4 19z"/>
<glyph glyph-name="unie990" unicode="" horiz-adv-x="593" d="M297 276q-11 0 -19 8l-182 183q-13 12 -6 28t24 16h104v184q0 10 8 18t18 8h105q10 0 18 -8t8 -18v-184h104q17 0 24 -16t-6 -28l-182 -183q-7 -8 -18 -8zM84 7h-34v35h34v-35zM221 184q15 -4 25.5 -17.5t10.5 -34.5q0 -17 -6 -28t-15.5 -17.5t-18.5 -8.5q-13 -3 -38 -3 h-23v-67h-36v179h58q33 0 43 -3zM216 117q4 6 4 14q0 10 -6 16.5t-15 7.5q-6 2 -26 2h-17v-51h20q21 0 28.5 2.5t11.5 8.5zM390 167q11 -12 17 -29t6 -42q0 -23 -5 -39q-7 -19 -20 -31q-9 -9 -25 -15q-12 -3 -32 -3h-68v179h66q22 0 34 -3q16 -5 27 -17zM372 64q4 12 4 33 t-4 32t-10.5 17.5t-16.5 8.5q-7 2 -30 2h-16v-119h27q15 0 22 2q9 2 14.5 7t9.5 17zM543 157h-87v-43h75v-30h-75v-76h-36v179h123v-30z"/>
<glyph glyph-name="unie991" unicode="" horiz-adv-x="764" d="M128 54l29 110h49v-161h-30v127l-32 -127h-32l-32 127v-127h-30v161h49zM324 105q15 -17 14 -53h-77q0 -14 7 -21.5t18 -7.5q7 0 12 4t8 13l31 -5q-6 -17 -19 -26t-32 -9q-31 0 -45 20q-12 16 -12 40q0 29 15 45.5t39 16.5q26 0 41 -17zM261 71h47q-1 14 -7.5 21t-15.5 7 q-11 0 -17.5 -7.5t-6.5 -20.5zM417.5 76q24.5 -6 34.5 -14t10 -23q0 -16 -13.5 -27.5t-39.5 -11.5q-24 0 -38 9.5t-18 26.5l31 5q2 -9 8 -14t17 -5q12 0 18 5q4 3 4 8q0 4 -2.5 6t-10.5 4q-37 8 -47 15q-14 9 -14 26q0 15 12 25.5t37 10.5q24 0 35.5 -7.5t16.5 -23.5l-29 -5 q-2 7 -7.5 10.5t-14.5 3.5q-13 0 -18 -3q-3 -3 -3 -7q0 -3 3 -5q4 -3 28.5 -9zM543 76q25 -6 34.5 -14t9.5 -23q0 -16 -13.5 -27.5t-39.5 -11.5q-24 0 -38 9.5t-18 26.5l31 5q2 -9 8 -14t17 -5q12 0 18 5q4 3 4 8q0 4 -2 6t-11 4q-37 8 -47 15q-14 9 -14 26q0 15 12 25.5 t37 10.5q24 0 36 -7.5t16 -23.5l-29 -5q-2 7 -7 10.5t-15 3.5q-12 0 -18 -3q-3 -3 -3 -7q0 -3 3 -5q4 -3 29 -9zM674 27q5 4 8 13l31 -5q-6 -17 -19 -26t-32 -9q-31 0 -45 20q-12 16 -12 40q0 29 15 45.5t39 16.5q26 0 41 -17t14 -53h-77q0 -14 7 -21.5t18 -7.5q7 0 12 4z M643.5 91.5q-6.5 -7.5 -6.5 -20.5h47q-1 14 -7.5 21t-15.5 7q-11 0 -17.5 -7.5zM710 615v-77l-330 -190v77zM380 615v-77l-330 -190v77zM710 710v-76l-660 -381v76zM380 710v-76l-330 -191v77zM380 253v76l330 191v-77z"/>
<glyph glyph-name="unie992" unicode="" horiz-adv-x="764" d="M115 74v-44h91v-27h-124v162h121v-27h-88v-36h82v-28h-82zM287 60l22 60h32l-47 -117h-28l-47 117h32l23 -60l6 -20q2 7 3 10zM446.5 105.5q15.5 -17.5 14.5 -52.5h-78q0 -14 7.5 -22t17.5 -8q8 0 13 4t7 13l31 -5q-6 -17 -19 -26t-32 -9q-31 0 -45 20q-12 16 -12 41 q0 29 15.5 45.5t38.5 16.5q26 0 41.5 -17.5zM383 72h47q0 13 -7 20t-16 7q-10 0 -17 -7.5t-7 -19.5zM585.5 110q4.5 -6 6.5 -13.5t2 -20.5v-73h-32v60q0 19 -2 24.5t-6.5 8.5t-10.5 3q-8 0 -14.5 -4.5t-9 -11.5t-2.5 -27v-53h-31v117h29v-17q16 20 39 20q10 0 18.5 -3.5 t13 -9.5zM666 26q5 0 13 3l3 -24q-11 -5 -25 -5q-8 0 -15 3t-10 7.5t-4 11.5q-1 6 -1 22v52h-15v24h15v24l31 18v-42h21v-24h-21v-48q0 -14 0.5 -16.5t2.5 -4t5 -1.5zM382 423l332 191v-77l-332 -192v78zM382 614v-77l-332 -192v77zM714 710v-77l-664 -384v78zM382 710v-77 l-332 -192v77zM382 249v78l332 191v-77z"/>
<glyph glyph-name="unie993" unicode="" d="M408 716q97 0 179.5 -48t130.5 -130.5t48 -179.5t-48 -179.5t-130.5 -130.5t-179.5 -48t-179.5 48t-130.5 130.5t-48 179.5t48 179.5t130.5 130.5t179.5 48zM638 407q8 8 4.5 19t-14.5 12l-131 19q-10 2 -14 10l-59 119q-5 10 -16 10t-16 -10l-59 -119q-4 -8 -14 -10 l-131 -19q-11 -1 -14.5 -12t4.5 -19l95 -92q7 -7 5 -17l-22 -130q-2 -11 7 -18t19 -1l118 61q8 5 17 0l117 -61q10 -6 19 1t7 18l-22 130q-2 10 5 17z"/>
<glyph glyph-name="unie995" unicode="" d="M766 447v-179h-269v-268h-179v268h-268v179h268v269h179v-269h269z"/>
<glyph glyph-name="unie996" unicode="" d="M766 300h-716v179h716v-179z"/>
<glyph glyph-name="unie998" unicode="" horiz-adv-x="802" d="M366 549q8 -8 8 -19v-460q0 -10 -8 -18.5t-19 -8.5t-19 8l-140 141h-111q-11 0 -19 8t-8 19v162q0 11 8 19t19 8h111l140 141q8 8 19 8t19 -8zM518 360q18 -28 18 -60t-18 -59.5t-47 -39.5q-4 -2 -11 -2q-11 0 -19 7.5t-8 19.5q0 9 5 15t12.5 10.5t14.5 9.5t12 15t5 24 t-5 24t-12 15t-14.5 9.5t-12.5 11t-5 14.5q0 12 8 19.5t19 7.5q7 0 11 -2q29 -11 47 -39zM608.5 419.5q35.5 -54.5 35.5 -119t-35.5 -119.5t-94.5 -80q-6 -2 -11 -2q-11 0 -19 8t-8 19q0 17 16 25q24 12 32 19q31 23 48.5 57t17.5 73t-17.5 73.5t-48.5 57.5q-8 6 -32 18 q-16 9 -16 25q0 11 8 19t19 8q5 0 11 -2q59 -25 94.5 -79.5zM698.5 478.5q53.5 -81.5 53.5 -178.5t-53.5 -178t-142.5 -120q-5 -2 -11 -2q-11 0 -19 8t-8 19q0 15 17 25q3 2 9.5 4.5t9.5 4.5q19 11 34 21q52 39 81 96.5t29 122t-29 122t-81 95.5q-15 11 -34 22q-3 1 -9.5 4 t-9.5 4q-17 10 -17 25q0 11 8 19t19 8q6 0 11 -2q89 -38 142.5 -119.5z"/>
<glyph glyph-name="unie99a" unicode="" d="M268 456.5q21 -20.5 21 -50.5t-21 -51t-51 -21t-51 21t-21 51t21 50.5t51 20.5t51 -20.5zM515 418l156 -155v-168h-526v72l120 119l59 -59zM714.5 521.5q-3.5 3.5 -8.5 3.5h-596q-5 0 -8.5 -3.5t-3.5 -8.5v-453q0 -5 3.5 -8.5t8.5 -3.5h596q5 0 8.5 3.5t3.5 8.5v453 q0 5 -3.5 8.5zM748.5 555.5q17.5 -17.5 17.5 -42.5v-453q0 -25 -17.5 -42.5t-42.5 -17.5h-596q-25 0 -42.5 17.5t-17.5 42.5v453q0 25 17.5 42.5t42.5 17.5h596q25 0 42.5 -17.5z"/>
<glyph glyph-name="unie99c" unicode="" horiz-adv-x="593" d="M287.5 272q-11.5 0 -18.5 7l-182 184q-13 11 -6 28q7 16 24 16h104v183q0 11 8 19t18 8h105q10 0 18 -8t8 -19v-183h104q17 0 24 -16t-6 -28l-182 -184q-7 -7 -18.5 -7zM84 3h-34v35h34v-35zM231 183h38l-64 -180h-39l-64 180h39l46 -133zM363 40.5q10 9.5 15 28.5 l35 -11q-8 -29 -27 -43.5t-48 -14.5q-36 0 -59 24.5t-23 67.5q0 44 23.5 69t61.5 25q33 0 53 -19q13 -12 19 -33l-36 -9q-3 14 -13.5 22t-24.5 8q-20 0 -32.5 -14.5t-12.5 -46.5q0 -34 12 -48.5t32 -14.5q15 0 25 9.5zM543 153h-87v-43h75v-30h-75v-77h-37v180h124v-30z"/>
<glyph glyph-name="unie99e" unicode="" horiz-adv-x="806" d="M618.5 150q19.5 0 34 14.5t14.5 34t-14.5 34t-34 14.5t-34 -14.5t-14.5 -34t14.5 -34t34 -14.5zM187 150q10 0 19 4t15.5 10.5t10.5 15.5t4 18q0 20 -14.5 34.5t-34 14.5t-34 -14.5t-14.5 -34t14.5 -34t33.5 -14.5zM150 338q-4 -11 1.5 -19.5t17.5 -8.5h467 q12 0 17.5 8.5t1.5 19.5l-56 135q-5 11 -17 19.5t-25 8.5h-309q-13 0 -25 -8.5t-17 -19.5zM726 406q13 0 21.5 -8.5t8.5 -21.5v-21q0 -15 -11 -26t-27 -11h-4l5 -15q18 -42 18 -88v-178q0 -15 -11 -26t-26 -11h-49q-16 0 -27 11t-11 26v44h-421v-44q0 -15 -11 -26t-27 -11 h-49q-15 0 -26 11t-11 26v178q0 46 18 88l6 15h-5q-15 0 -26 11t-11 26v21q0 13 8 21.5t21 8.5q5 0 9 -1l36 -10l36 89q8 19 28.5 32.5t40.5 13.5h346q21 0 41.5 -13.5t28.5 -32.5l36 -89l36 10q5 1 9 1z"/>
<glyph glyph-name="unie99f" unicode="" horiz-adv-x="756" d="M673 525q14 0 23.5 -7t9.5 -17v-95q0 -7 -4.5 -12.5t-12 -8.5t-16.5 -3h-14v-239q0 -13 -6 -24t-17 -17.5t-24 -6.5v-47q0 -13 -6 -24t-17 -17.5t-24 -6.5h-46q-20 0 -33.5 14t-13.5 34v47h-187v-47q0 -20 -14 -34t-33 -14h-47q-13 0 -23.5 6.5t-17 17.5t-6.5 24v47 q-19 0 -33 14t-14 34v239h-19q-11 0 -19.5 7t-8.5 17v95q0 10 8.5 17t19.5 7h19v48q0 59 41.5 101t99.5 42h281q58 0 99 -42t41 -101v-48h14zM285 668v-47h187v47h-187zM191 143q19 0 33 14t14 34t-14 34t-33 14t-33 -14t-14 -34t14 -34t33 -14zM565.5 143q19.5 0 33 14 t13.5 34t-13.5 34t-33 14t-33 -14t-13.5 -34t13.5 -34t33 -14zM612 286v287h-468v-287h468z"/>
<glyph glyph-name="unie9a0" unicode="" horiz-adv-x="741" d="M683 531q8 -19 8 -35v-458q0 -16 -11.5 -27t-28.5 -11h-561q-17 0 -28.5 11t-11.5 27v637q0 15 11.5 26.5t28.5 11.5h374q17 0 37 -8t32 -19l130 -124q12 -12 20 -31zM478 659v-150h157q-4 12 -9 17l-131 124q-5 5 -17 9zM638 51v407h-174q-16 0 -28 11t-12 27v166h-320 v-611h534zM424 287q14 -11 35 -22q24 3 49 3q61 0 73 -20q7 -9 1 -21l-1 -1q-2 -16 -30 -16q-20 0 -48 8t-54 21q-92 -9 -164 -33q-63 -104 -101 -104q-6 0 -11 3l-10 5q-1 0 -3 2q-4 4 -2 14q3 16 23 36.5t55 38.5q6 3 10 -3l1 -1q21 33 44 78q29 54 44 104q-10 33 -13 64 t3 50q4 16 17 16h9q10 0 15 -6q8 -8 4 -27q-1 -2 -2 -3v-3v-12q0 -49 -5 -76q23 -66 61 -95zM182 123q22 10 58 63q-22 -16 -37 -33.5t-21 -29.5zM349 489q-7 -16 -1 -52q0 3 3 17q0 2 3 17q0 2 2 4h-1v2q-1 8 -6 14v-1v-1zM297 226q56 22 119 32q-1 1 -5.5 4.5t-7.5 5.5 q-31 26 -53 70q-11 -34 -34 -79q-12 -21 -19 -33zM567 232q-10 10 -59 10q32 -11 52 -11h8q0 1 -1 1z"/>
<glyph glyph-name="unie9a1" unicode="" d="M347 0h-34q-14 0 -22 11q-5 7 -5 17v6l52 221h-206l-42 -61q-5 -7 -15 -7h-7q-8 0 -14 6q-4 5 -4 12v3l14 98l-14 99q-1 8 4.5 14.5t13.5 6.5h8q9 0 14 -8l42 -60h206l-51 220q-3 13 5 23.5t21 10.5h34q16 0 24 -14l129 -241h216q14 0 25.5 -7t18 -18.5t6.5 -25.5 q0 -21 -14.5 -36.5t-35.5 -14.5h-216l-130 -241q-7 -14 -23 -14z"/>
<glyph glyph-name="unie9aa" unicode="" d="M737 416q8 0 14.5 -4t10.5 -11.5t4 -15.5v-22q0 -16 -11 -27t-27 -11h-5l6 -15q18 -43 18 -90v-182q0 -16 -11 -27t-27 -11h-49q-16 0 -27 11t-11 27v45h-428v-45q0 -16 -11 -27t-27 -11h-50q-16 0 -27 11t-11 27v182q0 47 18 90l6 15h-4q-16 0 -27 11t-11 27v22 q0 13 8.5 22t20.5 9q5 0 10 -2l36 -10l37 92q8 19 28.5 33t41.5 14h64v49q0 10 6.5 16.5t15.5 6.5h188q10 0 16.5 -6.5t6.5 -16.5v-49h54q14 0 28.5 -6.5t25.5 -17.5t16 -23l38 -92l36 10q5 2 10 2zM484 598v-54h11v54h-11zM430 598l17 -26l-19 -28h14l12 18l12 -18h13 l-19 28l17 26h-12l-11 -17l-11 17h-13zM395 598l-21 -54h11l5 12h22l4 -12h12l-22 54h-11zM372 598h-43v-9h16v-45h11v45h16v9zM152 346q-5 -12 0.5 -20t18.5 -8h474q12 0 17.5 8t1.5 20l-57 138q-5 12 -17.5 20t-24.5 8h-314q-13 0 -25.5 -8t-16.5 -20zM189 154 q20 0 34.5 14.5t14.5 34.5t-14.5 34.5t-34.5 14.5t-34.5 -14.5t-14.5 -34.5q0 -10 4 -19t10.5 -15.5t15.5 -10.5t19 -4zM627 154q20 0 34.5 14.5t14.5 34.5t-14.5 34.5t-34.5 14.5t-34.5 -14.5t-14.5 -34.5t14.5 -34.5t34.5 -14.5zM401 591l9 -27h-18z"/>
<glyph glyph-name="unie9ac" unicode="" horiz-adv-x="813" d="M513 257q43 40 101 40q62 0 105.5 -43.5t43.5 -105t-43.5 -105t-105 -43.5t-105 43.5t-43.5 104.5q0 6 1 16l-167 84q-43 -40 -102 -40q-61 0 -104.5 43.5t-43.5 105t43.5 105t104.5 43.5q59 0 102 -40l167 83q-1 11 -1 16q0 62 43.5 105.5t105 43.5t105 -43.5t43.5 -105 t-43.5 -105t-105.5 -43.5q-58 0 -101 40l-167 -84q1 -10 1 -15.5t-1 -15.5z"/>
<glyph glyph-name="unie9ae" unicode="" horiz-adv-x="508" d="M203 286q25 -6 51 -6t51 6v-261q0 -10 -7.5 -17.5t-18.5 -7.5h-51q-10 0 -17.5 7.5t-7.5 17.5v261zM109.5 654q59.5 60 144 60t144.5 -60t60 -144.5t-60 -144t-144.5 -59.5t-144 59.5t-59.5 144t59.5 144.5zM173 590.5q34 33.5 81 33.5q5 0 9 4t4 9.5t-4 9t-9 3.5 q-58 0 -99 -41t-41 -99q0 -6 3.5 -9.5t9 -3.5t9 3.5t3.5 9.5q0 47 34 80.5z"/>
<glyph glyph-name="unie9af" unicode="" horiz-adv-x="809" d="M50 147q0 6 4.5 10.5t10.5 4.5h31q6 0 10.5 -4.5t4.5 -10.5v-132q0 -6 -4.5 -10.5t-10.5 -4.5h-31q-6 0 -10.5 4.5t-4.5 10.5v132zM212 208q0 6 4.5 10.5t10.5 4.5h31q6 0 10.5 -4.5t4.5 -10.5v-193q0 -6 -4.5 -10.5t-10.5 -4.5h-31q-6 0 -10.5 4.5t-4.5 10.5v193z M374 309q0 6 4.5 10.5t10.5 4.5h31q6 0 10.5 -4.5t4.5 -10.5v-294q0 -6 -4.5 -10.5t-10.5 -4.5h-31q-6 0 -10.5 4.5t-4.5 10.5v294zM536 451q0 6 4.5 10.5t10.5 4.5h31q6 0 10.5 -4.5t4.5 -10.5v-436q0 -6 -4.5 -10.5t-10.5 -4.5h-31q-6 0 -10.5 4.5t-4.5 10.5v436zM698 633 q0 3 1 6t3 5t5 3t6 1h31q6 0 10.5 -4.5t4.5 -10.5v-618q0 -6 -4.5 -10.5t-10.5 -4.5h-31q-6 0 -10.5 4.5t-4.5 10.5v618z"/>
<glyph glyph-name="unie9b0" unicode="" horiz-adv-x="809" d="M742 388q7 0 12 -5t5 -12v-33q0 -7 -5 -12t-12 -5h-40q-12 -104 -86 -178t-178 -86v-40q0 -7 -5 -12t-12 -5h-33q-7 0 -12 5t-5 12v40q-104 12 -178 86t-86 178h-40q-7 0 -12 5t-5 12v33q0 7 5 12t12 5h40q12 104 86 178t178 86v40q0 7 5 12t12 5h33q7 0 12 -5t5 -12v-40 q104 -12 178 -86t86 -178h40zM438 124q76 11 131 66t66 131h-59q-7 0 -11.5 5t-4.5 12v33q0 5 2 8.5t6 6t8 2.5h59q-11 76 -66 131t-131 66v-59q0 -7 -5 -11.5t-12 -4.5h-33q-7 0 -12 4.5t-5 11.5v59q-76 -11 -131 -66t-66 -131h59q7 0 11.5 -5t4.5 -12v-33q0 -7 -4.5 -12 t-11.5 -5h-59q11 -76 66 -131t131 -66v59q0 7 5 11.5t12 4.5h33q7 0 12 -4.5t5 -11.5v-59zM404.5 399q18.5 0 31.5 -13t13 -31.5t-13 -31.5t-31.5 -13t-31.5 13t-13 31.5t13 31.5t31.5 13z"/>
</font>
</defs>
</svg>
