<svg version="1" xmlns="http://www.w3.org/2000/svg" width="1365.333" height="1365.333" viewBox="0 0 1024.000000 1024.000000"><path d="M377.5 31.1c-6.2.9-19.2 4.6-21 5.9-.5.4-2.1 1.1-3.5 1.5-1.3.4-4 1.7-5.8 2.9-3.2 2-3.3 2.3-2.7 6.8 1.5 12.3 10.1 36.5 19.1 53.6 23 43.9 63.6 78.4 110.4 94 11.3 3.7 25 7.2 28.4 7.2.7 0 2.8-3.3 4.8-7.3 22.3-45.2 4.8-104.9-40.9-139.9-26.2-20.1-58.5-29.1-88.8-24.7z"/><path d="M315 73.3c-7.7 12.1-12.2 29.9-12.1 47.7 0 18.4 3.8 34.3 11.9 50.5 17.4 35 47.9 59.9 85.6 69.8 11.9 3.1 38.6 3.1 50.1 0 8.4-2.3 16.9-5.8 22.4-9.1l3.2-2-7.3-2.2c-18-5.4-41.8-16.7-58.8-27.9-21.5-14.1-45.7-37.3-58-55.6-1.9-2.8-3.6-5.2-4-5.5-.3-.3-3.2-4.9-6.4-10.2C333.5 115 325.9 98.5 321 84c-2.3-6.9-4.3-12.6-4.4-12.7-.1-.1-.8.8-1.6 2zM274.8 187.2c-3.6 4.6-10.4 12.8-15 18.4-4.5 5.6-12.3 15-17.3 21-4.9 6-29.9 36.3-55.4 67.4-25.5 31.1-49.4 60.1-53.1 64.5-25.6 30.6-40.6 49.6-42.3 53.5-1.3 3-2 6.9-2.1 12.1l-.2 7.6-6.2 5.8C72 447.8 62.4 462 57.8 475c-2.7 7.4-3.2 21.1-1.2 28.2 5.2 17.7 18.5 30.5 36.9 35.5 8.9 2.4 11.8 2.7 26.5 2.7 12.7 0 18-.4 23-1.8 14.1-3.8 28.1-10.1 41-18.4 5.9-3.9 23.2-16.8 26.5-19.9 1.1-1 6.3-5.4 11.5-9.8s9.7-8.2 10-8.5c.3-.4 5.1-4.5 10.8-9.2 23.8-19.9 43.9-30.9 62.9-34.2 8.6-1.5 24.4-1.3 32.6.3 2.8.6 6.7 1.3 8.4 1.6 16.2 2.6 45.5 16.5 64.3 30.3 26.3 19.4 38.4 31.8 75.2 77.4 1.6 2 3.9 4.7 5 6 1.1 1.3 4.1 4.9 6.6 8.1 4.4 5.5 14.3 17.7 18 22.2 1 1.1 6.6 8.1 12.7 15.5 6 7.4 11.5 14.2 12.2 15 .7.8 3.6 4.5 6.5 8.1 12.5 15.6 26.2 32.4 26.8 32.9.3.3 4.4 5.2 9 11s10.7 13.2 13.5 16.6c2.7 3.3 6.4 7.8 8.1 10 7.7 9.6 12.9 16 14.2 17.3 1.2 1.3-3.3 6.1-32.9 35.4-18.9 18.6-39.2 38.5-45 44l-10.6 10.2-2.6 8.5C512 861.8 483 962.1 483 964.6c0 4.5 2.3 9.5 6.1 13.2 6.2 6.1 12.8 6.5 27.9 1.9 4.7-1.4 22.5-6.7 39.5-11.7 17.1-5 34.6-10.2 39-11.5 4.4-1.3 22-6.5 39-11.5 17.1-5 32.1-9.9 33.5-10.9 1.4-1 3.4-3.2 4.5-5.1 1.9-3.1 30.1-31.3 155.5-156l53.8-53.5-14.2-14.1-14.3-14.2L748 796.5c-57.9 57.9-105.5 105.7-105.9 106.2-.7 1.1.2.8-48.1 14.8-20 5.9-36.8 10.9-37.2 11.1-.9.6-18.8-17.2-18.8-18.6 0-.9 11.7-41.6 17.5-60.5 1.3-4.4 3.6-12.4 5.1-17.7l2.7-9.7 105.3-105.2 105.3-105.1-12.5-12.5c-6.9-6.8-12.9-12.3-13.4-12.1-.5.2-24.1 23.2-52.5 51.3-28.4 28-52.1 51.2-52.6 51.4-1.2.4-3.1-1.5-7.4-7.4-1.7-2.2-3.5-4.5-4.1-5-.6-.6-4.8-5.7-9.4-11.5-9.4-11.8-16.3-20.3-17-21-.3-.3-2.3-2.8-4.5-5.5-2.1-2.8-4.2-5.2-4.5-5.5-.3-.3-11.1-13.6-24-29.5-12.8-16-23.6-29.2-24-29.5-.3-.3-3.3-3.9-6.5-8-3.3-4.1-6.2-7.7-6.5-8-.3-.3-3.5-4.1-7-8.5-3.6-4.4-6.8-8.2-7.2-8.3-.5-.2-.8-.8-.8-1.3s-.8-1.7-1.7-2.7c-1-1.1-2.7-3-3.7-4.3-1.1-1.3-3.3-4-5-6-5.5-6.2-9.1-11.2-10.2-13.9-1.9-4.5-16.7-22-30-35.6-32.9-33.4-68.4-55.9-104.9-66.6-16.6-4.8-26.4-6.2-44-6.1-22.1 0-36.3 3.4-55.6 13.1-11.7 6-33.6 20.3-36.9 24.2-.3.3-4.5 3.9-9.5 8-4.9 4.1-10.3 8.7-12 10.1-39.8 35-60 46.5-82.9 47.4-9.8.4-23.5-1.6-27.3-4-3.4-2.3-7.3-8-7.8-11.4-.9-7.7 5.3-19.1 16.7-30.7 5.9-6.1 6.1-6.2 9.7-5.2 8 2.2 20.8-.8 27.6-6.5 1.7-1.4 24.1-19.9 50-41.2 25.9-21.3 48.8-40.2 51-42 2.2-1.8 9.7-8 16.7-13.8 7-5.7 14.7-12 17-14 2.4-1.9 15.1-12.4 28.3-23.2 13.2-10.8 25.1-20.7 26.5-21.9 1.4-1.1 6.1-5 10.5-8.6 4.4-3.5 8.2-6.7 8.5-7 .3-.3 4-3.4 8.2-6.8 4.3-3.5 8-6.7 8.3-7.1.3-.5-2.5-2.3-6.1-4-31.9-14.9-59.3-42.2-75.5-75.4-1.8-3.7-3.6-6.7-3.9-6.7-.3 0-3.5 3.7-7.2 8.2zM865.5 486.1c-8 .9-16.5 4.2-22.3 8.8-7.3 5.9-23.2 23-22.6 24.4.3.6 29 29.7 63.7 64.5l63.3 63.4 10.3-10.5c5.7-5.8 12-12.8 14.2-15.7 7-9.4 9.8-23.9 6.9-36.5-2.5-11.1-5.3-14.6-43.4-52.7-19.9-19.9-38.1-37.4-40.5-38.9-8.3-5.3-19.4-7.9-29.6-6.8zM782.6 550.5c-8.2 8-14.7 14.7-14.5 15 2.8 3.4 132.5 132.5 133 132.5.4 0 2.1-1.2 3.6-2.6 1.5-1.4 7-6.5 12.2-11.3 5.2-4.7 10.7-9.8 12.3-11.3l2.9-2.7-67-67.1c-36.9-36.8-67.2-67-67.3-67-.2.1-7 6.6-15.2 14.5z"/><path d="M695 732.6C640.3 787.4 592.4 835.3 588.5 839c-3.8 3.8-6.7 7.1-6.4 7.4.2.3 1.6.7 2.9 1 10.9 2.1 26.6 5.8 27.1 6.4.3.4 1.4 6.7 2.4 13.9 1.1 7.3 2.1 13.3 2.4 13.3.3 0 48.5-47.7 107.1-106.1l106.4-106-18-18-17.9-17.9-99.5 99.6z"/></svg>